<?xml version="1.0" encoding="utf-8"?>
<!-- Generator: Adobe Illustrator 27.2.0, SVG Export Plug-In . SVG Version: 6.00 Build 0)  -->
<svg version="1.1" id="Layer_1" xmlns="http://www.w3.org/2000/svg" xmlns:xlink="http://www.w3.org/1999/xlink" x="0px" y="0px"
	 viewBox="0 0 115.7 17.8" style="enable-background:new 0 0 115.7 17.8;" xml:space="preserve">
<style type="text/css">
	.st0{fill:#939598;}
</style>
<g>
	<path class="st0" d="M13.8,14.5v3.3H0V0h13.5v3.3H4.1v3.9h8.3v3.2H4.1v4.1H13.8z"/>
	<path class="st0" d="M17.1,0h4.1v14.5h8.9v3.4H17.1V0z"/>
	<path class="st0" d="M46.3,14.5v3.3H32.5V0H46v3.3h-9.4v3.9h8.3v3.2h-8.3v4.1H46.3z"/>
	<path class="st0" d="M66.6,0l-7.7,17.8h-4.1L47,0h4.5l5.4,12.7L62.4,0H66.6z"/>
	<path class="st0" d="M79.2,14h-8.3l-1.6,3.8h-4.2l8-17.8h4.1l8,17.8h-4.3L79.2,14z M77.9,10.9l-2.8-6.8l-2.8,6.8H77.9z"/>
	<path class="st0" d="M89.8,3.4h-5.7V0h15.6v3.4h-5.7v14.5h-4.1V3.4z"/>
	<path class="st0" d="M115.7,14.5v3.3h-13.8V0h13.5v3.3H106v3.9h8.3v3.2H106v4.1H115.7z"/>
</g>
</svg>
